<?xml version="1.0" encoding="utf-8"?>
<svg xmlns="http://www.w3.org/2000/svg" xmlns:xlink="http://www.w3.org/1999/xlink" style="margin: auto; background: none; display: block; shape-rendering: auto;" width="196px" height="196px" viewBox="0 0 100 100" preserveAspectRatio="xMidYMid">
<g transform="rotate(0 50 50)">
  <rect x="42" y="26" rx="8" ry="5" width="16" height="10" fill="#fe718d">
    <animate attributeName="opacity" values="1;0" keyTimes="0;1" dur="0.9803921568627451s" begin="-0.9259259259259259s" repeatCount="indefinite"></animate>
  </rect>
</g><g transform="rotate(20 50 50)">
  <rect x="42" y="26" rx="8" ry="5" width="16" height="10" fill="#f47e60">
    <animate attributeName="opacity" values="1;0" keyTimes="0;1" dur="0.9803921568627451s" begin="-0.8714596949891068s" repeatCount="indefinite"></animate>
  </rect>
</g><g transform="rotate(40 50 50)">
  <rect x="42" y="26" rx="8" ry="5" width="16" height="10" fill="#f8b26a">
    <animate attributeName="opacity" values="1;0" keyTimes="0;1" dur="0.9803921568627451s" begin="-0.8169934640522876s" repeatCount="indefinite"></animate>
  </rect>
</g><g transform="rotate(60 50 50)">
  <rect x="42" y="26" rx="8" ry="5" width="16" height="10" fill="#abbd81">
    <animate attributeName="opacity" values="1;0" keyTimes="0;1" dur="0.9803921568627451s" begin="-0.7625272331154684s" repeatCount="indefinite"></animate>
  </rect>
</g><g transform="rotate(80 50 50)">
  <rect x="42" y="26" rx="8" ry="5" width="16" height="10" fill="#849b87">
    <animate attributeName="opacity" values="1;0" keyTimes="0;1" dur="0.9803921568627451s" begin="-0.7080610021786493s" repeatCount="indefinite"></animate>
  </rect>
</g><g transform="rotate(100 50 50)">
  <rect x="42" y="26" rx="8" ry="5" width="16" height="10" fill="#6492ac">
    <animate attributeName="opacity" values="1;0" keyTimes="0;1" dur="0.9803921568627451s" begin="-0.6535947712418301s" repeatCount="indefinite"></animate>
  </rect>
</g><g transform="rotate(120 50 50)">
  <rect x="42" y="26" rx="8" ry="5" width="16" height="10" fill="#637cb5">
    <animate attributeName="opacity" values="1;0" keyTimes="0;1" dur="0.9803921568627451s" begin="-0.599128540305011s" repeatCount="indefinite"></animate>
  </rect>
</g><g transform="rotate(140 50 50)">
  <rect x="42" y="26" rx="8" ry="5" width="16" height="10" fill="#6a63b6">
    <animate attributeName="opacity" values="1;0" keyTimes="0;1" dur="0.9803921568627451s" begin="-0.5446623093681917s" repeatCount="indefinite"></animate>
  </rect>
</g><g transform="rotate(160 50 50)">
  <rect x="42" y="26" rx="8" ry="5" width="16" height="10" fill="#fe718d">
    <animate attributeName="opacity" values="1;0" keyTimes="0;1" dur="0.9803921568627451s" begin="-0.4901960784313726s" repeatCount="indefinite"></animate>
  </rect>
</g><g transform="rotate(180 50 50)">
  <rect x="42" y="26" rx="8" ry="5" width="16" height="10" fill="#f47e60">
    <animate attributeName="opacity" values="1;0" keyTimes="0;1" dur="0.9803921568627451s" begin="-0.4357298474945534s" repeatCount="indefinite"></animate>
  </rect>
</g><g transform="rotate(200 50 50)">
  <rect x="42" y="26" rx="8" ry="5" width="16" height="10" fill="#f8b26a">
    <animate attributeName="opacity" values="1;0" keyTimes="0;1" dur="0.9803921568627451s" begin="-0.3812636165577342s" repeatCount="indefinite"></animate>
  </rect>
</g><g transform="rotate(220 50 50)">
  <rect x="42" y="26" rx="8" ry="5" width="16" height="10" fill="#abbd81">
    <animate attributeName="opacity" values="1;0" keyTimes="0;1" dur="0.9803921568627451s" begin="-0.32679738562091504s" repeatCount="indefinite"></animate>
  </rect>
</g><g transform="rotate(240 50 50)">
  <rect x="42" y="26" rx="8" ry="5" width="16" height="10" fill="#849b87">
    <animate attributeName="opacity" values="1;0" keyTimes="0;1" dur="0.9803921568627451s" begin="-0.27233115468409586s" repeatCount="indefinite"></animate>
  </rect>
</g><g transform="rotate(260 50 50)">
  <rect x="42" y="26" rx="8" ry="5" width="16" height="10" fill="#6492ac">
    <animate attributeName="opacity" values="1;0" keyTimes="0;1" dur="0.9803921568627451s" begin="-0.2178649237472767s" repeatCount="indefinite"></animate>
  </rect>
</g><g transform="rotate(280 50 50)">
  <rect x="42" y="26" rx="8" ry="5" width="16" height="10" fill="#637cb5">
    <animate attributeName="opacity" values="1;0" keyTimes="0;1" dur="0.9803921568627451s" begin="-0.16339869281045752s" repeatCount="indefinite"></animate>
  </rect>
</g><g transform="rotate(300 50 50)">
  <rect x="42" y="26" rx="8" ry="5" width="16" height="10" fill="#6a63b6">
    <animate attributeName="opacity" values="1;0" keyTimes="0;1" dur="0.9803921568627451s" begin="-0.10893246187363835s" repeatCount="indefinite"></animate>
  </rect>
</g><g transform="rotate(320 50 50)">
  <rect x="42" y="26" rx="8" ry="5" width="16" height="10" fill="#fe718d">
    <animate attributeName="opacity" values="1;0" keyTimes="0;1" dur="0.9803921568627451s" begin="-0.054466230936819175s" repeatCount="indefinite"></animate>
  </rect>
</g><g transform="rotate(340 50 50)">
  <rect x="42" y="26" rx="8" ry="5" width="16" height="10" fill="#f47e60">
    <animate attributeName="opacity" values="1;0" keyTimes="0;1" dur="0.9803921568627451s" begin="0s" repeatCount="indefinite"></animate>
  </rect>
</g>
<!-- [ldio] generated by https://loading.io/ --></svg>